<?xml version="1.0" encoding="UTF-8"?>
<svg xmlns="http://www.w3.org/2000/svg" xmlns:xlink="http://www.w3.org/1999/xlink" width="18px" height="18px" viewBox="0 0 18 18" version="1.1">
<g id="surface1">
<path style=" stroke:none;fill-rule:nonzero;fill:rgb(0%,0%,0%);fill-opacity:1;" d="M 17.71875 9 C 17.71875 4.1875 13.8125 0.28125 9 0.28125 C 4.1875 0.28125 0.28125 4.1875 0.28125 9 C 0.28125 13.351562 3.46875 16.960938 7.640625 17.609375 L 7.640625 11.523438 L 5.421875 11.523438 L 5.421875 9 L 7.640625 9 L 7.640625 7.078125 C 7.640625 4.890625 8.9375 3.6875 10.929688 3.6875 C 11.882812 3.6875 12.882812 3.859375 12.882812 3.859375 L 12.882812 6 L 11.78125 6 C 10.703125 6 10.359375 6.671875 10.359375 7.367188 L 10.359375 9 L 12.78125 9 L 12.390625 11.523438 L 10.359375 11.523438 L 10.359375 17.609375 C 14.53125 16.960938 17.71875 13.351562 17.71875 9 Z M 17.71875 9 "/>
</g>
</svg>
